<svg width="89" height="89" viewBox="0 0 89 89" fill="none" xmlns="http://www.w3.org/2000/svg">
<g id="Frame">
<g id="Icons">
<g id="Group">
<g id="Group_2">
<g id="Group_3">
<path id="Vector" d="M35.88 27.6001V25.4914C35.88 25.0636 35.7807 24.64 35.5888 24.2577L34.3551 21.7889C33.6734 20.4254 34.2268 18.7681 35.5888 18.0863L38.64 16.5601L41.6912 18.0863C43.0546 18.7681 43.6066 20.4254 42.9249 21.7889L41.6912 24.2577C41.4994 24.64 41.4 25.0636 41.4 25.4914V27.6001H35.88Z" fill="#3CC8B4"/>
</g>
<g id="Group_4">
<path id="Vector_2" d="M37.4064 24.2577L36.1727 21.7889C35.491 20.4254 36.0444 18.7681 37.4064 18.0863L39.5496 17.0155L38.6401 16.5601L35.589 18.0863C34.2255 18.7681 33.6735 20.4254 34.3552 21.7889L35.589 24.2577C35.7794 24.64 35.8801 25.0636 35.8801 25.4914V27.6001H37.6976V25.4914C37.6976 25.0636 37.5982 24.64 37.4064 24.2577Z" fill="#1EAA96"/>
</g>
<g id="Group_5">
<path id="Vector_3" d="M44.9881 46.92L46.3129 33.6693C46.6385 30.4194 44.0869 27.6 40.8205 27.6H36.4597C33.1932 27.6 30.6416 30.4194 30.9673 33.6693L32.2921 46.92H44.9881Z" fill="#F0F0F0"/>
</g>
<g id="Group_6">
<path id="Vector_4" d="M34.4724 46.92L33.1476 33.6693C32.8233 30.4194 35.375 27.6 38.64 27.6H36.4596C33.1946 27.6 30.6416 30.4194 30.9672 33.6693L32.292 46.92H34.4724Z" fill="#D2D2D2"/>
</g>
</g>
<g id="Group_7">
<path id="Vector_5" d="M57.96 35.88C57.96 32.8316 55.4884 30.36 52.44 30.36H46.4467C44.9825 30.36 43.579 30.941 42.544 31.9774L37.4974 37.0241C36.461 38.0591 35.88 39.4625 35.88 40.9267V52.44H57.96V35.88Z" fill="#FAB400"/>
</g>
<g id="Group_8">
<path id="Vector_6" d="M40.2574 37.0227L45.304 31.976C46.339 30.941 47.7439 30.3586 49.2067 30.3586H46.4467C44.9825 30.3586 43.579 30.9396 42.544 31.976L37.4974 37.0227C36.461 38.059 35.88 39.4625 35.88 40.9267V52.44H38.64V40.9267C38.64 39.4625 39.221 38.059 40.2574 37.0227Z" fill="#DC9600"/>
</g>
<g id="Group_9">
<path id="Vector_7" d="M46.92 46.92C45.3951 46.92 44.16 45.6849 44.16 44.16C44.16 42.6351 45.3951 41.4 46.92 41.4C48.4449 41.4 49.68 42.6351 49.68 44.16C49.68 45.6849 48.4449 46.92 46.92 46.92Z" fill="#DC9600"/>
</g>
<g id="Group_10">
<path id="Vector_8" d="M51.2615 38.64H50.8572C50.2072 38.64 49.6801 38.1128 49.6801 37.4615V37.0571C49.6801 36.4072 50.2072 35.88 50.8586 35.88H51.2629C51.9129 35.88 52.4401 36.4072 52.4401 37.0585V37.4629C52.4401 38.1128 51.9129 38.64 51.2615 38.64Z" fill="#DC9600"/>
</g>
<g id="Group_11">
<path id="Vector_9" d="M35.88 49.6801H57.96V52.4401H35.88V49.6801Z" fill="#DC9600"/>
</g>
<g id="Group_12">
<path id="Vector_10" d="M13.8 60.72H74.5201V74.52H13.8V60.72Z" fill="#BE7800"/>
</g>
<g id="Group_13">
<path id="Vector_11" d="M11.04 52.44H77.28V60.72H11.04V52.44Z" fill="#FAB400"/>
</g>
<g id="Group_14">
<path id="Vector_12" d="M11.04 63.48H77.28V71.76H11.04V63.48Z" fill="#FAB400"/>
</g>
<g id="Group_15">
<path id="Vector_13" d="M11.04 74.52H77.28V82.8H11.04V74.52Z" fill="#FAB400"/>
</g>
<g id="Group_16">
<path id="Vector_14" d="M11.04 52.44H16.56V60.72H11.04V52.44Z" fill="#DC9600"/>
</g>
<g id="Group_17">
<path id="Vector_15" d="M11.04 63.48H16.56V71.76H11.04V63.48Z" fill="#DC9600"/>
</g>
<g id="Group_18">
<path id="Vector_16" d="M11.04 74.52H16.56V82.8H11.04V74.52Z" fill="#DC9600"/>
</g>
<g id="Group_19">
<path id="Vector_17" d="M17.9401 57.96C17.1783 57.96 16.5601 57.3418 16.5601 56.58C16.5601 55.8183 17.1783 55.2 17.9401 55.2C18.7018 55.2 19.3201 55.8183 19.3201 56.58C19.3201 57.3418 18.7018 57.96 17.9401 57.96Z" fill="#F0F0F0"/>
</g>
<g id="Group_20">
<path id="Vector_18" d="M17.9401 69.0001C17.1783 69.0001 16.5601 68.3818 16.5601 67.6201C16.5601 66.8583 17.1783 66.2401 17.9401 66.2401C18.7018 66.2401 19.3201 66.8583 19.3201 67.6201C19.3201 68.3818 18.7018 69.0001 17.9401 69.0001Z" fill="#F0F0F0"/>
</g>
<g id="Group_21">
<path id="Vector_19" d="M17.9401 80.04C17.1783 80.04 16.5601 79.4218 16.5601 78.66C16.5601 77.8983 17.1783 77.28 17.9401 77.28C18.7018 77.28 19.3201 77.8983 19.3201 78.66C19.3201 79.4218 18.7018 80.04 17.9401 80.04Z" fill="#F0F0F0"/>
</g>
<g id="Group_22">
<path id="Vector_20" d="M70.38 57.96C69.6182 57.96 69 57.3418 69 56.58C69 55.8183 69.6182 55.2 70.38 55.2C71.1418 55.2 71.76 55.8183 71.76 56.58C71.76 57.3418 71.1418 57.96 70.38 57.96Z" fill="#F0F0F0"/>
</g>
<g id="Group_23">
<path id="Vector_21" d="M70.38 69.0001C69.6182 69.0001 69 68.3818 69 67.6201C69 66.8583 69.6182 66.2401 70.38 66.2401C71.1418 66.2401 71.76 66.8583 71.76 67.6201C71.76 68.3818 71.1418 69.0001 70.38 69.0001Z" fill="#F0F0F0"/>
</g>
<g id="Group_24">
<path id="Vector_22" d="M70.38 80.04C69.6182 80.04 69 79.4218 69 78.66C69 77.8983 69.6182 77.28 70.38 77.28C71.1418 77.28 71.76 77.8983 71.76 78.66C71.76 79.4218 71.1418 80.04 70.38 80.04Z" fill="#F0F0F0"/>
</g>
<g id="Group_25">
<path id="Vector_23" d="M26.22 33.1201H28.98V35.8801H26.22V33.1201Z" fill="#008C78"/>
</g>
<g id="Group_26">
<path id="Vector_24" d="M38.6401 46.92V44.16C38.6401 39.5867 34.9334 35.88 30.3601 35.88H24.8401C20.2667 35.88 16.5601 39.5867 16.5601 44.16V46.92C16.5601 49.0438 17.366 50.9744 18.6811 52.44H36.519C37.8341 50.9744 38.6401 49.0438 38.6401 46.92Z" fill="#FA6450"/>
</g>
<g id="Group_27">
<path id="Vector_25" d="M19.3201 46.92V44.16C19.3201 39.5867 23.0267 35.88 27.6001 35.88H24.8401C20.2667 35.88 16.5601 39.5867 16.5601 44.16V46.92C16.5601 49.0438 17.366 50.9744 18.6811 52.44H21.4411C20.126 50.9744 19.3201 49.0438 19.3201 46.92Z" fill="#DC4632"/>
</g>
<g id="Group_28">
<path id="Vector_26" d="M24.84 35.88C23.8712 35.88 22.9438 36.0553 22.08 36.3616V41.4L24.84 38.64L27.6 41.4L30.36 38.64L33.12 41.4V36.3616C32.2561 36.0553 31.3287 35.88 30.36 35.88H24.84Z" fill="#3CC8B4"/>
</g>
<g id="Group_29">
<path id="Vector_27" d="M23.3827 36.0166C22.9356 36.098 22.5009 36.2126 22.08 36.3616V38.0011C23.5455 36.6859 25.4761 35.88 27.6 35.88H26.22H24.84C24.379 35.88 23.9278 35.9255 23.4889 36.0001C23.4531 36.0056 23.4172 36.0097 23.3827 36.0166Z" fill="#1EAA96"/>
</g>
<g id="Group_30">
<path id="Vector_28" d="M59.34 33.1201H62.1V35.8801H59.34V33.1201Z" fill="#008C78"/>
</g>
<g id="Group_31">
<path id="Vector_29" d="M71.7601 46.92V44.16C71.7601 39.5867 68.0534 35.88 63.4801 35.88H57.9601C53.3867 35.88 49.6801 39.5867 49.6801 44.16V46.92C49.6801 49.0438 50.486 50.9744 51.8011 52.44H69.639C70.9541 50.9744 71.7601 49.0438 71.7601 46.92Z" fill="#3CC8B4"/>
</g>
<g id="Group_32">
<path id="Vector_30" d="M52.4401 46.92V44.16C52.4401 39.5867 56.1467 35.88 60.7201 35.88H57.9601C53.3867 35.88 49.6801 39.5867 49.6801 44.16V46.92C49.6801 49.0438 50.486 50.9744 51.8011 52.44H54.5611C53.246 50.9744 52.4401 49.0438 52.4401 46.92Z" fill="#1EAA96"/>
</g>
<g id="Group_33">
<path id="Vector_31" d="M57.96 35.88C56.9912 35.88 56.0638 36.0553 55.2 36.3616V41.4L57.96 38.64L60.72 41.4L63.48 38.64L66.24 41.4V36.3616C65.3761 36.0553 64.4487 35.88 63.48 35.88H57.96Z" fill="#008C78"/>
</g>
<g id="Group_34">
<path id="Vector_32" d="M71.76 27.6C77.8572 27.6 82.8 22.6572 82.8 16.56C82.8 10.4628 77.8572 5.52002 71.76 5.52002C65.6627 5.52002 60.72 10.4628 60.72 16.56C60.72 22.6572 65.6627 27.6 71.76 27.6Z" fill="#3CC8B4"/>
</g>
<g id="Group_35">
<path id="Vector_33" d="M63.4565 16.56C63.4565 10.9269 67.6779 6.28868 73.1289 5.61386C72.6791 5.55728 72.2237 5.52002 71.76 5.52002C65.6631 5.52002 60.72 10.4632 60.72 16.56C60.72 22.6569 65.6631 27.6 71.76 27.6C72.2237 27.6 72.6791 27.5628 73.1276 27.5062C67.6779 26.8314 63.4565 22.1932 63.4565 16.56Z" fill="#1EAA96"/>
</g>
<g id="Group_36">
<path id="Vector_34" d="M78.66 13.8L70.38 22.08L64.86 16.56L67.62 13.8L70.38 16.56L75.9 11.04L78.66 13.8Z" fill="#F0F0F0"/>
</g>
<g id="Group_37">
<path id="Vector_35" d="M17.0251 27.5738C17.2183 26.4104 18.1305 25.4996 19.2938 25.3051L22.08 24.84L19.2938 24.3749C18.1305 24.1817 17.2197 23.2696 17.0251 22.1062L16.56 19.32L16.095 22.1062C15.9018 23.2696 14.9896 24.1804 13.8263 24.3749L11.04 24.84L13.8263 25.3051C14.9896 25.4983 15.9004 26.4104 16.095 27.5738L16.56 30.36L17.0251 27.5738Z" fill="#FAB400"/>
</g>
<g id="Group_38">
<path id="Vector_36" d="M25.0718 20.6863C25.1684 20.1053 25.6252 19.6485 26.2062 19.5519L27.6 19.3201L26.2062 19.0882C25.6252 18.9916 25.1684 18.5348 25.0718 17.9539L24.84 16.5601L24.6081 17.9539C24.5115 18.5348 24.0547 18.9916 23.4738 19.0882L22.08 19.3201L23.4738 19.5519C24.0547 19.6485 24.5115 20.1053 24.6081 20.6863L24.84 22.0801L25.0718 20.6863Z" fill="#FAB400"/>
</g>
</g>
</g>
</g>
</svg>
