<svg width="89" height="89" viewBox="0 0 89 89" fill="none" xmlns="http://www.w3.org/2000/svg">
<g id="Frame">
<g id="Icons">
<g id="Group">
<g id="Group_2">
<path id="Vector" d="M76.9823 29.3747C75.405 30.004 73.6896 30.36 71.8915 30.36C70.4577 30.36 69.0763 30.1392 67.775 29.7321C70.368 33.937 71.8915 38.8677 71.8915 44.16C71.8915 50.3631 69.8091 56.0763 66.3411 60.6897L63.6115 57.96H52.5715L60.8211 66.2097C56.2078 69.6776 50.4946 71.76 44.2915 71.76C29.0729 71.76 16.6915 59.3787 16.6915 44.16C16.6915 37.9569 18.7739 32.2437 22.2419 27.6304L34.608 39.9966L38.0608 36.0511C38.6376 35.3915 39.3111 34.8367 40.048 34.3965L27.7619 22.1104C32.3752 18.6424 38.0884 16.56 44.2915 16.56C49.5838 16.56 54.5145 18.0835 58.7194 20.6766C58.3123 19.3752 58.0915 17.9938 58.0915 16.56C58.0915 14.7619 58.4475 13.0465 59.0768 11.4692C54.567 9.42681 49.5645 8.28003 44.2915 8.28003C24.4761 8.28003 8.4115 24.3446 8.4115 44.16C8.4115 63.9754 24.4761 80.04 44.2915 80.04C64.1069 80.04 80.1715 63.9754 80.1715 44.16C80.1715 38.887 79.0247 33.8845 76.9823 29.3747Z" fill="#FAB400"/>
</g>
<g id="Group_3">
<path id="Vector_2" d="M13.9315 44.16C13.9315 25.2775 28.5195 9.81459 47.0391 8.39733C46.131 8.32833 45.2175 8.28003 44.2915 8.28003C24.4761 8.28003 8.4115 24.3446 8.4115 44.16C8.4115 63.9754 24.4761 80.04 44.2915 80.04C45.2216 80.04 46.1393 79.9931 47.0515 79.9241C28.5264 78.5137 13.9315 63.0467 13.9315 44.16Z" fill="#DC9600"/>
</g>
<g id="Group_4">
<path id="Vector_3" d="M71.8916 27.6C77.9888 27.6 82.9316 22.6572 82.9316 16.56C82.9316 10.4628 77.9888 5.52002 71.8916 5.52002C65.7943 5.52002 60.8516 10.4628 60.8516 16.56C60.8516 22.6572 65.7943 27.6 71.8916 27.6Z" fill="#FA6450"/>
</g>
<g id="Group_5">
<path id="Vector_4" d="M63.5881 16.56C63.5881 10.9269 67.8095 6.28868 73.2605 5.61386C72.8106 5.55728 72.3552 5.52002 71.8916 5.52002C65.7947 5.52002 60.8516 10.4632 60.8516 16.56C60.8516 22.6569 65.7947 27.6 71.8916 27.6C72.3552 27.6 72.8106 27.5628 73.2591 27.5062C67.8095 26.8314 63.5881 22.1932 63.5881 16.56Z" fill="#DC4632"/>
</g>
<g id="Group_6">
<path id="Vector_5" d="M76.7712 19.487L73.8428 16.56L76.7712 13.6331L74.8185 11.6804L71.8915 14.6087L68.9645 11.6804L67.0118 13.6331L69.9402 16.56L67.0118 19.487L68.9645 21.4397L71.8915 18.5114L74.8185 21.4397L76.7712 19.487Z" fill="#F0F0F0"/>
</g>
<g id="Group_7">
<path id="Vector_6" d="M24.9716 55.2L40.1378 37.8672C42.3375 35.3542 46.247 35.3542 48.4467 37.8672L63.6116 55.2H24.9716Z" fill="#EBE0E0"/>
</g>
<g id="Group_8">
<path id="Vector_7" d="M45.6716 36.1781C43.7299 35.6785 41.5716 36.2278 40.1378 37.8672L24.9716 55.2H27.7316L42.8978 37.8672C43.6623 36.9937 44.6379 36.4444 45.6716 36.1781Z" fill="#D2D2D2"/>
</g>
<g id="Group_9">
<path id="Vector_8" d="M40.1515 49.68C39.3897 49.68 38.7715 49.0618 38.7715 48.3C38.7715 47.5383 39.3897 46.92 40.1515 46.92C40.9132 46.92 41.5315 47.5383 41.5315 48.3C41.5315 49.0618 40.9132 49.68 40.1515 49.68Z" fill="#D2D2D2"/>
</g>
<g id="Group_10">
<path id="Vector_9" d="M51.1915 49.68C50.4298 49.68 49.8115 49.0618 49.8115 48.3C49.8115 47.5383 50.4298 46.92 51.1915 46.92C51.9533 46.92 52.5715 47.5383 52.5715 48.3C52.5715 49.0618 51.9533 49.68 51.1915 49.68Z" fill="#D2D2D2"/>
</g>
<g id="Group_11">
<path id="Vector_10" d="M45.6715 44.16C44.9097 44.16 44.2915 43.5418 44.2915 42.78C44.2915 42.0183 44.9097 41.4 45.6715 41.4C46.4333 41.4 47.0515 42.0183 47.0515 42.78C47.0515 43.5418 46.4333 44.16 45.6715 44.16Z" fill="#D2D2D2"/>
</g>
<g id="Group_12">
<path id="Vector_11" d="M44.2915 33.12C43.5297 33.12 42.9115 32.5018 42.9115 31.74C42.9115 30.9783 43.5297 30.36 44.2915 30.36C45.0533 30.36 45.6715 30.9783 45.6715 31.74C45.6715 32.5018 45.0533 33.12 44.2915 33.12Z" fill="#D2D2D2"/>
</g>
<g id="Group_13">
<path id="Vector_12" d="M44.2915 27.6C43.5297 27.6 42.9115 26.9818 42.9115 26.22C42.9115 25.4583 43.5297 24.84 44.2915 24.84C45.0533 24.84 45.6715 25.4583 45.6715 26.22C45.6715 26.9818 45.0533 27.6 44.2915 27.6Z" fill="#D2D2D2"/>
</g>
</g>
</g>
</g>
</svg>
