<svg width="89" height="89" viewBox="0 0 89 89" fill="none" xmlns="http://www.w3.org/2000/svg">
<g id="Frame">
<g id="Icons">
<g id="Group">
<g id="Group_2">
<path id="Vector" d="M38.9272 57.96C38.9272 53.3812 40.3293 49.1239 42.725 45.5938C39.1811 41.3462 33.8516 38.64 27.8872 38.64H25.1272V46.92C25.1272 55.6706 30.9494 63.0536 38.9272 65.43V57.96Z" fill="#3CC8B4"/>
</g>
<g id="Group_3">
<path id="Vector_2" d="M67.9306 29.7321C70.5236 33.937 72.0471 38.8677 72.0471 44.16C72.0471 59.3787 59.6658 71.76 44.4471 71.76C29.2285 71.76 16.8471 59.3787 16.8471 44.16C16.8471 28.9414 29.2285 16.56 44.4471 16.56C49.7394 16.56 54.6702 18.0835 58.875 20.6766C58.4679 19.3752 58.2471 17.9938 58.2471 16.56C58.2471 14.7619 58.6032 13.0465 59.2325 11.4692C54.7226 9.42681 49.7201 8.28003 44.4471 8.28003C24.6317 8.28003 8.56714 24.3446 8.56714 44.16C8.56714 63.9754 24.6317 80.04 44.4471 80.04C64.2626 80.04 80.3271 63.9754 80.3271 44.16C80.3271 38.887 79.1804 33.8845 77.138 29.3747C75.5606 30.004 73.8453 30.36 72.0471 30.36C70.6133 30.36 69.2319 30.1392 67.9306 29.7321Z" fill="#3CC8B4"/>
</g>
<g id="Group_4">
<path id="Vector_3" d="M14.0871 44.16C14.0871 25.2775 28.6751 9.81459 47.1947 8.39733C46.2867 8.32833 45.3731 8.28003 44.4471 8.28003C24.6317 8.28003 8.56714 24.3446 8.56714 44.16C8.56714 63.9754 24.6317 80.04 44.4471 80.04C45.3773 80.04 46.295 79.9931 47.2071 79.9241C28.682 78.5137 14.0871 63.0467 14.0871 44.16Z" fill="#1EAA96"/>
</g>
<g id="Group_5">
<path id="Vector_4" d="M72.0472 27.6C78.1444 27.6 83.0872 22.6572 83.0872 16.56C83.0872 10.4628 78.1444 5.52002 72.0472 5.52002C65.95 5.52002 61.0072 10.4628 61.0072 16.56C61.0072 22.6572 65.95 27.6 72.0472 27.6Z" fill="#FAB400"/>
</g>
<g id="Group_6">
<path id="Vector_5" d="M63.7672 16.56C63.7672 10.931 67.9831 6.29558 73.4272 5.61524C72.9746 5.55866 72.515 5.52002 72.0472 5.52002C65.9504 5.52002 61.0072 10.4632 61.0072 16.56C61.0072 22.6569 65.9504 27.6 72.0472 27.6C72.515 27.6 72.9746 27.5614 73.4272 27.5048C67.9831 26.8245 63.7672 22.189 63.7672 16.56Z" fill="#DC9600"/>
</g>
<g id="Group_7">
<path id="Vector_6" d="M78.9472 13.8L70.6672 22.08L65.1472 16.56L67.9072 13.8L70.6672 16.56L76.1872 11.04L78.9472 13.8Z" fill="#F0F0F0"/>
</g>
<g id="Group_8">
<path id="Vector_7" d="M27.8872 46.92V38.64H25.1272V46.92C25.1272 55.6706 30.9494 63.0536 38.9272 65.43V64.3563C32.4053 61.2527 27.8872 54.6232 27.8872 46.92Z" fill="#1EAA96"/>
</g>
<g id="Group_9">
<path id="Vector_8" d="M31.1867 45.1095L30.1089 45.972L38.974 57.0534C39.0016 56.3786 39.0554 55.712 39.1424 55.0538L31.1867 45.1095Z" fill="#1EAA96"/>
</g>
<g id="Group_10">
<path id="Vector_9" d="M44.4499 43.4024C46.3998 41.1875 48.79 39.3742 51.4713 38.077C51.7349 35.041 51.0035 31.9153 49.2109 29.227L44.4471 22.08L39.682 29.227C37.8894 31.9153 37.158 35.0424 37.4229 38.0797C40.0643 39.3549 42.4613 41.142 44.4499 43.4024Z" fill="#3CC8B4"/>
</g>
<g id="Group_11">
<path id="Vector_10" d="M39.0955 38.9588C38.5918 35.6523 39.2777 32.1775 41.2442 29.227L45.2268 23.2516L44.4471 22.08L39.682 29.227C37.8894 31.9153 37.158 35.0424 37.4229 38.0797C37.9901 38.353 38.5532 38.6359 39.0955 38.9588Z" fill="#1EAA96"/>
</g>
<g id="Group_12">
<path id="Vector_11" d="M45.1372 42.6972V30.36H43.7572V42.6931C43.9863 42.9318 44.2305 43.1526 44.45 43.401C44.6666 43.1554 44.9095 42.9332 45.1372 42.6972Z" fill="#1EAA96"/>
</g>
<g id="Group_13">
<path id="Vector_12" d="M41.6871 66.24H44.4471C55.1173 66.24 63.7671 57.5902 63.7671 46.92V38.64H61.0071C50.337 38.64 41.6871 47.2899 41.6871 57.96V66.24Z" fill="#3CC8B4"/>
</g>
<g id="Group_14">
<path id="Vector_13" d="M63.7671 38.64H61.0071C50.337 38.64 41.6871 47.2899 41.6871 57.96V66.24H44.4471V57.96C44.4471 47.2899 53.097 38.64 63.7671 38.64Z" fill="#1EAA96"/>
</g>
<g id="Group_15">
<path id="Vector_14" d="M58.7867 45.972L57.7076 45.1095L41.6871 65.1347V66.2401H42.5717L58.7867 45.972Z" fill="#1EAA96"/>
</g>
</g>
</g>
</g>
</svg>
