<svg width="89" height="89" viewBox="0 0 89 89" fill="none" xmlns="http://www.w3.org/2000/svg">
<g id="Frame">
<g id="Icons">
<g id="Group">
<g id="Group_2">
<path id="Vector" d="M83.3955 82.8001H72.3555V66.2401H83.3955L80.6355 74.5201L83.3955 82.8001Z" fill="#DC9600"/>
</g>
<g id="Group_3">
<path id="Vector_2" d="M6.11548 82.8001H17.1555V66.2401H6.11548L8.87548 74.5201L6.11548 82.8001Z" fill="#DC9600"/>
</g>
<g id="Group_4">
<path id="Vector_3" d="M14.3953 60.72H75.1153V77.28H14.3953V60.72Z" fill="#FAB400"/>
</g>
<g id="Group_5">
<path id="Vector_4" d="M80.6353 44.16C80.6353 38.887 79.4885 33.8845 77.4461 29.3747C75.8688 30.004 74.1535 30.36 72.3553 30.36C70.9215 30.36 69.5401 30.1392 68.2388 29.7321C70.8318 33.937 72.3553 38.8677 72.3553 44.16C72.3553 49.1901 70.9808 53.8945 68.621 57.96H77.8808C79.6528 53.711 80.6353 49.0507 80.6353 44.16Z" fill="#3CC8B4"/>
</g>
<g id="Group_6">
<path id="Vector_5" d="M17.1555 44.16C17.1555 28.9414 29.5368 16.56 44.7555 16.56C50.0478 16.56 54.9785 18.0835 59.1834 20.6766C58.7763 19.3752 58.5555 17.9938 58.5555 16.56C58.5555 14.7619 58.9115 13.0465 59.5408 11.4692C55.031 9.42681 50.0285 8.28003 44.7555 8.28003C24.9401 8.28003 8.87549 24.3446 8.87549 44.16C8.87549 49.0508 9.85805 53.711 11.63 57.96H20.8898C18.53 53.8946 17.1555 49.1901 17.1555 44.16Z" fill="#3CC8B4"/>
</g>
<g id="Group_7">
<path id="Vector_6" d="M14.3955 44.16C14.3955 25.2733 28.9904 9.80631 47.5155 8.39595C46.6033 8.32695 45.6856 8.28003 44.7555 8.28003C24.9401 8.28003 8.87549 24.3446 8.87549 44.16C8.87549 49.0508 9.85805 53.711 11.63 57.96H17.1555C15.3822 53.711 14.3955 49.0521 14.3955 44.16Z" fill="#1EAA96"/>
</g>
<g id="Group_8">
<path id="Vector_7" d="M72.3554 27.6C78.4527 27.6 83.3954 22.6572 83.3954 16.56C83.3954 10.4628 78.4527 5.52002 72.3554 5.52002C66.2582 5.52002 61.3154 10.4628 61.3154 16.56C61.3154 22.6572 66.2582 27.6 72.3554 27.6Z" fill="#64C8F0"/>
</g>
<g id="Group_9">
<path id="Vector_8" d="M64.052 16.56C64.052 10.9269 68.2734 6.28868 73.7244 5.61386C73.2745 5.55728 72.8191 5.52002 72.3554 5.52002C66.2586 5.52002 61.3154 10.4632 61.3154 16.56C61.3154 22.6569 66.2586 27.6 72.3554 27.6C72.8191 27.6 73.2745 27.5628 73.723 27.5062C68.2734 26.8314 64.052 22.1932 64.052 16.56Z" fill="#46AAD2"/>
</g>
<g id="Group_10">
<path id="Vector_9" d="M79.2553 13.8L70.9753 22.08L65.4553 16.56L68.2153 13.8L70.9753 16.56L76.4953 11.04L79.2553 13.8Z" fill="#F0F0F0"/>
</g>
<g id="Group_11">
<g id="Group_12">
<path id="Vector_10" d="M28.1953 71.76V63.48H25.4353L22.6753 66.24H25.4353V71.76H22.6753V74.52H30.9553V71.76H28.1953Z" fill="#F0F0F0"/>
</g>
<g id="Group_13">
<path id="Vector_11" d="M33.7153 63.48V74.52H41.9953V63.48H33.7153ZM39.2353 71.76H36.4753V66.24H39.2353V71.76Z" fill="#F0F0F0"/>
</g>
<g id="Group_14">
<path id="Vector_12" d="M44.7554 63.48V74.52H53.0354V63.48H44.7554ZM50.2754 71.76H47.5154V66.24H50.2754V71.76Z" fill="#F0F0F0"/>
</g>
<g id="Group_15">
<path id="Vector_13" d="M55.7954 63.48H58.5554V66.24H55.7954V63.48Z" fill="#F0F0F0"/>
</g>
<g id="Group_16">
<path id="Vector_14" d="M64.0754 71.7601H66.8354V74.5201H64.0754V71.7601Z" fill="#F0F0F0"/>
</g>
<g id="Group_17">
<path id="Vector_15" d="M64.0754 63.48L55.7954 74.52H58.5554L66.8354 63.48H64.0754Z" fill="#F0F0F0"/>
</g>
</g>
<g id="Group_18">
<path id="Vector_16" d="M65.2842 47.1146L45.2673 49.6165C44.9264 49.6593 44.5842 49.68 44.2405 49.68H36.4753C34.9504 49.68 33.7153 48.4449 33.7153 46.92L45.2962 44.6044C46.5865 44.3463 47.5153 43.2133 47.5153 41.8982V41.4H20.0781C19.9774 42.3081 19.9153 43.2258 19.9153 44.16C19.9153 47.3947 20.5639 50.606 21.8073 53.6034L36.2917 57.2245C38.2182 57.7061 40.2399 57.6592 42.1416 57.0879L65.8513 49.9753C66.4365 49.8001 66.8353 49.2633 66.8353 48.6533V48.4836C66.8353 47.6528 66.108 47.0111 65.2842 47.1146Z" fill="#F0C8A0"/>
</g>
<g id="Group_19">
<path id="Vector_17" d="M53.0355 22.08L48.8417 28.3701C45.2068 33.8238 47.1733 41.2289 53.0355 44.16C58.8977 41.2289 60.8643 33.8238 57.2293 28.3701L53.0355 22.08Z" fill="#3CC8B4"/>
</g>
<g id="Group_20">
<path id="Vector_18" d="M53.0355 42.6406C48.9921 39.1465 47.9792 33.0455 51.0966 28.3701L54.163 23.7705L53.0355 22.08L48.8417 28.3701C45.2068 33.8238 47.1733 41.2289 53.0355 44.16V42.6406Z" fill="#1EAA96"/>
</g>
<g id="Group_21">
<path id="Vector_19" d="M52.3455 30.36H53.7255V46.92H52.3455V30.36Z" fill="#1EAA96"/>
</g>
</g>
</g>
</g>
</svg>
